<svg xmlns="http://www.w3.org/2000/svg" viewBox="0 0 255 458.9" enable-background="new 0 0 255 458.9"><path d="M114.1 246c-87.9 0-86.1 86-86.1 86s-10.5 96.6 96.6 96.6l103.4-103.4v-318" fill="none"/><path fill="#fff" d="M114.1 226c-12.1 0-23.2 1.4-33.1 4.1-8.7 2.3-16.6 5.6-23.6 9.7-6.1 3.5-11.6 7.6-16.3 12-8.3 7.7-14.5 16.4-19.1 24.9-3.4 6.4-6 12.8-7.9 18.7-2.9 9-4.4 17.1-5.1 23.4-.9 6.4-1 11-1 12.8v.8l20-.4-19.9-2.2c-.1.6-.4 3.9-.4 9.1 0 6.6.5 16.4 3 27.7 1.9 8.4 4.9 17.8 9.7 27.2 3.6 7 8.3 14.1 14.3 20.7 4.5 5 9.7 9.6 15.7 13.8 9 6.3 19.7 11.4 32.1 14.9 12.4 3.5 26.3 5.4 42.1 5.4 14 0 26.7-1.6 38.2-4.5 10-2.6 19.1-6.2 27.1-10.7 7-3.9 13.3-8.4 18.8-13.3 9.6-8.6 16.9-18.3 22.4-28 4.1-7.3 7.1-14.6 9.5-21.5 3.5-10.4 5.3-20 6.3-27.7 1-7.7 1.1-13.5 1.1-16.5v-2l-20 .7h20v-318h-40v318.79999999999995l10.3-.4-10.4.3v.1l10.3-.4-10.4.3v.7c0 2-.2 8.8-1.7 17.3-1.2 6.4-3.2 13.9-6.3 21.2-2.4 5.5-5.4 10.9-9.2 16-2.9 3.8-6.2 7.3-10 10.5-5.8 4.8-12.8 9-21.9 12.1-9.1 3.1-20.2 5-34.2 5.1-9.9 0-18.4-.9-25.7-2.5-6.3-1.4-11.7-3.2-16.3-5.3-4-1.9-7.5-4-10.6-6.2-5.3-4-9.4-8.5-12.7-13.3-2.4-3.6-4.4-7.5-6-11.4-2.4-5.9-3.8-11.9-4.6-17.3-.8-5.4-1.1-10.2-1-13.5 0-1.7.1-3.1.1-3.9 0-.4 0-.7.1-.8v-.1l-9.5-.9 9.5 1v-.1l-9.5-.9 9.5 1 .1-1.3v-1.3l-10.4.2 10.5-.1v-.1l-10.4.2 10.5-.1v-.1c0-.7.1-5.7 1.3-12.5.9-5.1 2.5-11.2 5-17.2 1.9-4.5 4.3-9 7.3-13.1 2.3-3.1 4.8-6 7.9-8.6 4.5-3.9 10-7.3 17.2-9.9 7.2-2.5 16.1-4.2 27.5-4.2v-40.4h-.2z"/></svg>